<?xml version="1.0" encoding="utf-8"?>
<!-- Generator: Adobe Illustrator 17.0.2, SVG Export Plug-In . SVG Version: 6.00 Build 0)  -->
<!DOCTYPE svg PUBLIC "-//W3C//DTD SVG 1.1//EN" "http://www.w3.org/Graphics/SVG/1.1/DTD/svg11.dtd">
<svg version="1.1" id="Layer_2" xmlns="http://www.w3.org/2000/svg" xmlns:xlink="http://www.w3.org/1999/xlink" x="0px" y="0px"
	 width="124px" height="40px" viewBox="0 0 124 40" enable-background="new 0 0 124 40" xml:space="preserve">
<g>
	<path fill="#4C61A0" d="M1.013,39.25V10.188h5.709l11.895,19.408V10.188h5.452V39.25h-5.888L6.465,20.298V39.25H1.013z"/>
	<path fill="#4C61A0" d="M26.214,39.25V10.188h21.549v4.917H32.082v6.443h14.591v4.896H32.082v7.91h16.236v4.896H26.214z"/>
	<path fill="#4C61A0" d="M53.357,39.25l-6.938-29.062h6.007l4.381,19.963l5.312-19.963h6.979l5.094,20.3l4.461-20.3h5.908
		L77.502,39.25h-6.225L65.49,17.522L59.72,39.25H53.357z"/>
	<path fill="#4C61A0" d="M82.008,29.794l5.709-0.556c0.344,1.917,1.041,3.324,2.092,4.223c1.051,0.899,2.469,1.349,4.252,1.349
		c1.891,0,3.314-0.399,4.271-1.199c0.959-0.8,1.438-1.735,1.438-2.806c0-0.687-0.201-1.271-0.604-1.754
		c-0.404-0.482-1.107-0.902-2.111-1.259c-0.688-0.238-2.254-0.661-4.699-1.27c-3.145-0.779-5.352-1.737-6.621-2.874
		c-1.783-1.6-2.676-3.549-2.676-5.848c0-1.48,0.42-2.865,1.258-4.153c0.84-1.289,2.049-2.27,3.629-2.944
		c1.578-0.674,3.484-1.011,5.719-1.011c3.648,0,6.393,0.8,8.236,2.399s2.812,3.734,2.904,6.403l-5.867,0.258
		c-0.252-1.494-0.789-2.567-1.615-3.222s-2.066-0.981-3.717-0.981c-1.705,0-3.041,0.351-4.006,1.051
		c-0.621,0.45-0.932,1.051-0.932,1.804c0,0.687,0.291,1.275,0.873,1.764c0.74,0.622,2.537,1.27,5.393,1.943
		c2.854,0.674,4.965,1.371,6.334,2.091c1.367,0.721,2.438,1.705,3.211,2.954s1.16,2.792,1.16,4.629c0,1.665-0.463,3.225-1.389,4.679
		s-2.232,2.534-3.926,3.241c-1.691,0.707-3.799,1.061-6.322,1.061c-3.676,0-6.496-0.85-8.465-2.548
		C83.566,35.52,82.391,33.045,82.008,29.794z"/>
</g>
<path fill="#4C61A0" d="M112.925,11.954v-0.586l0.907-0.727c2.181-1.714,3.166-2.625,3.179-3.689c0-0.716-0.42-1.378-1.694-1.378
	c-0.775,0-1.419,0.326-1.813,0.597l-0.367-0.672c0.591-0.412,1.432-0.716,2.417-0.716c1.839,0,2.614,1.042,2.614,2.051
	c0,1.302-1.143,2.354-2.942,3.786l-0.684,0.521v0.021h3.836v0.792C118.378,11.954,112.925,11.954,112.925,11.954z"/>
<g>
	<path fill="#4C61A0" d="M115.558,16.032c-4.121,0-7.475-3.353-7.475-7.475s3.354-7.475,7.475-7.475s7.475,3.353,7.475,7.475
		S119.679,16.032,115.558,16.032z M115.558,2.083c-3.57,0-6.475,2.904-6.475,6.475s2.904,6.475,6.475,6.475s6.475-2.904,6.475-6.475
		S119.128,2.083,115.558,2.083z"/>
</g>
</svg>
